<?xml version="1.0" standalone="no"?>
<!DOCTYPE svg PUBLIC "-//W3C//DTD SVG 20010904//EN"
 "http://www.w3.org/TR/2001/REC-SVG-20010904/DTD/svg10.dtd">
<svg version="1.0" xmlns="http://www.w3.org/2000/svg"
 width="1024.000000pt" height="1024.000000pt" viewBox="0 0 1024.000000 1024.000000"
 preserveAspectRatio="xMidYMid meet">

<g transform="translate(0.000000,1024.000000) scale(0.100000,-0.100000)"
fill="#000000" stroke="none">
<path d="M2640 8430 l0 -300 169 0 c158 0 170 -1 202 -23 19 -12 44 -42 57
-67 l22 -44 0 -1610 c0 -1593 0 -1610 -20 -1650 -37 -75 -53 -81 -242 -84
l-168 -3 0 -330 0 -329 815 0 815 0 0 330 0 330 -240 0 -240 0 0 461 0 461
-90 93 c-49 51 -94 105 -100 120 -15 38 -14 1329 1 1358 6 12 51 63 100 112
l88 90 3 342 3 341 31 39 c46 57 99 72 267 73 l137 0 0 295 0 295 -805 0 -805
0 0 -300z"/>
<path d="M3997 7402 l-297 -297 0 -611 c0 -346 4 -624 10 -643 5 -19 54 -80
122 -154 63 -67 229 -246 370 -398 141 -152 269 -284 285 -295 27 -18 56 -19
708 -19 l680 0 0 345 0 345 -536 5 -536 5 -179 183 c-98 101 -187 200 -196
220 -15 33 -18 75 -18 349 0 367 4 386 91 468 96 90 63 86 686 83 l548 -3 46
-27 c92 -54 146 -141 157 -255 l7 -65 145 -53 c289 -104 357 -140 483 -255
l67 -62 0 428 0 428 -234 236 c-129 129 -255 259 -281 288 l-48 52 -891 0
-891 0 -298 -298z"/>
<path d="M4841 6337 l-274 -275 144 -151 c79 -83 146 -151 149 -151 3 0 91 -1
196 -3 l191 -2 12 44 c14 53 66 106 119 121 23 7 114 10 248 8 203 -3 212 -4
246 -27 19 -13 46 -40 59 -59 l24 -36 3 -475 c2 -414 1 -481 -13 -518 -17 -44
-96 -125 -142 -145 -19 -9 -124 -14 -323 -18 l-295 -5 2 -325 1 -325 449 0
448 0 71 26 c158 58 333 212 461 406 116 177 113 157 113 853 0 559 0 588 -20
658 -38 135 -112 255 -223 359 -87 81 -177 128 -387 203 -295 105 -278 102
-655 107 l-330 5 -274 -275z"/>
<path d="M6852 6318 l3 -293 92 -5 c88 -5 94 -7 125 -38 l33 -32 2 -728 2
-727 -40 85 c-22 47 -86 182 -141 300 -56 118 -105 219 -110 225 -4 5 -8 -92
-8 -216 0 -200 -2 -233 -20 -284 -38 -109 -159 -304 -247 -397 -41 -42 -53
-61 -46 -70 6 -7 52 -105 103 -218 51 -113 227 -474 391 -802 l299 -598 235 0
235 0 0 1700 c0 1879 -5 1739 63 1780 26 16 50 20 135 20 l102 0 -2 293 -3
292 -603 3 -602 2 2 -292z"/>
<path d="M4386 4907 c-9 -40 -6 -1120 4 -1182 15 -95 72 -197 154 -280 114
-116 200 -145 423 -145 l123 0 0 795 0 795 -307 0 c-280 0 -312 2 -350 19
l-41 19 -6 -21z"/>
<path d="M6375 4054 c-121 -87 -256 -133 -447 -150 l-67 -5 -3 -278 -3 -278
-28 -42 c-19 -28 -44 -50 -75 -64 -46 -22 -57 -22 -487 -22 -482 0 -510 3
-625 58 -46 23 -89 56 -150 117 -140 139 -200 248 -200 362 l0 48 -265 0 -265
0 0 -303 0 -303 348 -336 347 -337 775 0 775 -1 298 298 297 297 0 271 c0 318
-4 340 -99 559 -34 76 -61 140 -61 142 0 9 -21 -1 -65 -33z"/>
</g>
</svg>
